# xmcd
#
# Track frame offsets: 
#        150
#        12630
#        25218
#        43981
#
# Disc length: 762 seconds
#
# Revision: 0
# Processed by: cddbd v1.5.2PL0 Copyright (c) Steve Scherf et al.
# Submitted via: ExactAudioCopy v0.99pb3
#
DISCID=3002f804
DTITLE=Outrageous Cherry - Stay Right Here For A Little While
DYEAR=2002
DGENRE=Rainbow Quartz
TTITLE0=Stay Right Here For A Little While
TTITLE1=Paradox Fiends
TTITLE2=Time Illuminates You
TTITLE3=Anywhere
EXTD=
EXTT0=
EXTT1=
EXTT2=
EXTT3=
PLAYORDER=
